<svg id="Layer_1" data-name="Layer 1" xmlns="http://www.w3.org/2000/svg" xmlns:xlink="http://www.w3.org/1999/xlink" viewBox="0 0 537.53 406.34" width="406" height="306" class="illustration styles_illustrationTablet__1DWOa"><defs><linearGradient id="linear-gradient" x1="100.73" y1="213.22" x2="111.25" y2="213.22" gradientUnits="userSpaceOnUse"><stop offset="0" stop-color="#010101" stop-opacity="0"></stop><stop offset="0.95" stop-color="#010101"></stop></linearGradient><linearGradient id="linear-gradient-2" x1="483.17" y1="192.58" x2="307.2" y2="202.01" xlink:href="#linear-gradient"></linearGradient><linearGradient id="linear-gradient-3" x1="154.64" y1="227.31" x2="149.58" y2="208.52" xlink:href="#linear-gradient"></linearGradient><linearGradient id="linear-gradient-4" x1="159.62" y1="205.75" x2="168.73" y2="206.15" gradientUnits="userSpaceOnUse"><stop offset="0" stop-color="#fff" stop-opacity="0"></stop><stop offset="0.95" stop-color="#fff"></stop></linearGradient><linearGradient id="linear-gradient-5" x1="268.68" y1="255.25" x2="269.31" y2="324.38" xlink:href="#linear-gradient-4"></linearGradient><linearGradient id="linear-gradient-6" x1="135.2" y1="296.62" x2="124.71" y2="339.16" xlink:href="#linear-gradient"></linearGradient><linearGradient id="linear-gradient-7" x1="266.1" y1="346.4" x2="278.04" y2="237.68" xlink:href="#linear-gradient"></linearGradient><linearGradient id="linear-gradient-8" x1="817.53" y1="141.34" x2="815.61" y2="197.84" gradientTransform="matrix(-1, 0, 0, 1, 963.37, -1.8)" xlink:href="#linear-gradient-4"></linearGradient><linearGradient id="linear-gradient-9" x1="865.99" y1="233.77" x2="836.43" y2="200.54" gradientTransform="matrix(-1, 0, 0, 1, 984.78, 0)" xlink:href="#linear-gradient"></linearGradient><linearGradient id="linear-gradient-10" x1="115.22" y1="172.93" x2="128.33" y2="172.93" gradientUnits="userSpaceOnUse"><stop offset="0" stop-color="#e5c6d6"></stop><stop offset="0.42" stop-color="#ead4d0"></stop><stop offset="1" stop-color="#f0e9cb"></stop></linearGradient><linearGradient id="linear-gradient-11" x1="149.03" y1="213.3" x2="147.85" y2="195.86" xlink:href="#linear-gradient-4"></linearGradient><linearGradient id="linear-gradient-12" x1="155.06" y1="208.09" x2="163.43" y2="208.09" xlink:href="#linear-gradient-10"></linearGradient><linearGradient id="linear-gradient-13" x1="169.75" y1="197.24" x2="169.84" y2="201.48" gradientUnits="userSpaceOnUse"><stop offset="0" stop-color="#010101" stop-opacity="0"></stop><stop offset="0.89" stop-color="#010101"></stop></linearGradient><linearGradient id="linear-gradient-14" x1="169.78" y1="199.11" x2="169.83" y2="201.64" xlink:href="#linear-gradient-13"></linearGradient><linearGradient id="linear-gradient-15" x1="162.39" y1="173.82" x2="225.07" y2="222.14" xlink:href="#linear-gradient"></linearGradient></defs><title>Code javascript</title><path d="M46.22,336C37,325.12,29,312.86,24.83,299.16c-9.27-30.64,1.79-63.58,15.45-92.52,13.1-27.78,36.11-63.94,36.59-95.34.09-5.67-1.4-11.23-2.28-16.84A81.08,81.08,0,0,1,96.08,26.55,81.52,81.52,0,0,1,147.13,2.6C207.71-2.92,273.25,22,311.45,27c44.06,5.84,89.13-8,133-1,39.07,6.26,76.91-12,97.26,21.95s22.48,119.5,7.3,156c-5.61,13.5-13.64,26.06-17.44,40.18-4.17,15.53-3,32-.19,47.86,2.21,12.64,5.4,25.44,3.69,38.16-2,15.13-10.85,28.62-21.67,39.38-29.95,29.79-74.74,40.74-116.9,38.19s-82.58-17.1-122-32.21c-9.47-3.63-19-7.32-29-9-11.45-1.92-23.16-1.14-34.72-.16-32.39,2.74-66.28,12.67-98.48,13.21C87.05,380.05,61.49,354,46.22,336Z" transform="translate(-21.41 -1.8)" fill="#68e1fd" opacity="0.24" style="isolation: isolate;"></path><path d="M108.31,185.53s-6.18,13.59-7.43,25.85,5.89,29.81,5.89,29.81l4.48-20.39Z" transform="translate(-21.41 -1.8)" fill="#68e1fd"></path><path d="M108.31,185.53s-6.18,13.59-7.43,25.85,5.77,29.53,5.77,29.53l4.6-20.11Z" transform="translate(-21.41 -1.8)" opacity="0.26" fill="url(#linear-gradient)"></path><path d="M405.81,192.88q.88-4.57,1.76-9.15c.33-1.71.62-3.44,1-5.34,2.85.5,5.63.93,8.38,1.48a1.43,1.43,0,0,0,1.89-.94c1.24-2.42,2.63-4.77,4.09-7.06a1.38,1.38,0,0,0-.12-2c-1.85-2.12-3.64-4.3-5.55-6.58l11.95-10c1.84,2.19,3.68,4.32,5.43,6.51a1.52,1.52,0,0,0,2.18.5,60.49,60.49,0,0,1,7.39-2.71c1.15-.33,1.43-.79,1.4-1.88-.06-2.73,0-5.46,0-8.29h15.59c0,2.8.06,5.56,0,8.32,0,1.12.29,1.53,1.41,1.86a62.76,62.76,0,0,1,7.38,2.72,1.51,1.51,0,0,0,2.17-.54c1.73-2.16,3.55-4.26,5.42-6.48l11.94,10-6.12,7.33c1.66,3,3.21,6,4.86,8.82a1.73,1.73,0,0,0,1.44.42c2.78-.43,5.55-.95,8.52-1.47.91,5.14,1.8,10.15,2.71,15.34-2.9.51-5.72,1-8.53,1.54-.46.1-1.15.53-1.21.9-.56,3.24-1,6.51-1.51,10l8.23,4.77-7.8,13.5-8.27-4.76c-2.68,2.14-5.28,4.18-7.81,6.29a1.51,1.51,0,0,0-.25,1.32c.94,2.76,2,5.49,3,8.35l-14.64,5.33c-.91-2.48-1.88-4.9-2.66-7.39-.46-1.44-1.09-1.89-2.67-1.75a54.94,54.94,0,0,1-7.59,0,1.28,1.28,0,0,0-1.55,1c-.92,2.67-1.92,5.3-3,8.13L430,235.59l3.27-9.07-8.26-7-8.36,4.81-7.8-13.5c2.57-1.49,5-2.92,7.47-4.29a1.37,1.37,0,0,0,.77-1.85,75.1,75.1,0,0,1-1.36-7.6c-.16-1.24-.45-1.85-1.84-2-2.7-.32-5.38-.9-8.07-1.37Zm47.73-18.6c-10.72-.28-19.79,8.53-20.13,19.56-.35,10.85,8.56,20,19.73,20.26a19.91,19.91,0,0,0,.4-39.82Z" transform="translate(-21.41 -1.8)" fill="#68e1fd"></path><path d="M405.81,192.88q.88-4.57,1.76-9.15c.33-1.71.62-3.44,1-5.34,2.85.5,5.63.93,8.38,1.48a1.43,1.43,0,0,0,1.89-.94c1.24-2.42,2.63-4.77,4.09-7.06a1.38,1.38,0,0,0-.12-2c-1.85-2.12-3.64-4.3-5.55-6.58l11.95-10c1.84,2.19,3.68,4.32,5.43,6.51a1.52,1.52,0,0,0,2.18.5,60.49,60.49,0,0,1,7.39-2.71c1.15-.33,1.43-.79,1.4-1.88-.06-2.73,0-5.46,0-8.29h15.59c0,2.8.06,5.56,0,8.32,0,1.12.29,1.53,1.41,1.86a62.76,62.76,0,0,1,7.38,2.72,1.51,1.51,0,0,0,2.17-.54c1.73-2.16,3.55-4.26,5.42-6.48l11.94,10-6.12,7.33c1.66,3,3.21,6,4.86,8.82a1.73,1.73,0,0,0,1.44.42c2.78-.43,5.55-.95,8.52-1.47.91,5.14,1.8,10.15,2.71,15.34-2.9.51-5.72,1-8.53,1.54-.46.1-1.15.53-1.21.9-.56,3.24-1,6.51-1.51,10l8.23,4.77-7.8,13.5-8.27-4.76c-2.68,2.14-5.28,4.18-7.81,6.29a1.51,1.51,0,0,0-.25,1.32c.94,2.76,2,5.49,3,8.35l-14.64,5.33c-.91-2.48-1.88-4.9-2.66-7.39-.46-1.44-1.09-1.89-2.67-1.75a54.94,54.94,0,0,1-7.59,0,1.28,1.28,0,0,0-1.55,1c-.92,2.67-1.92,5.3-3,8.13L430,235.59l3.27-9.07-8.26-7-8.36,4.81-7.8-13.5c2.57-1.49,5-2.92,7.47-4.29a1.37,1.37,0,0,0,.77-1.85,75.1,75.1,0,0,1-1.36-7.6c-.16-1.24-.45-1.85-1.84-2-2.7-.32-5.38-.9-8.07-1.37Zm47.73-18.6c-10.72-.28-19.79,8.53-20.13,19.56-.35,10.85,8.56,20,19.73,20.26a19.91,19.91,0,0,0,.4-39.82Z" transform="translate(-21.41 -1.8)" fill="url(#linear-gradient-2)"></path><rect x="119.36" y="82" width="301.66" height="194.95" rx="16.02" fill="#68e1fd"></rect><rect x="126.59" y="89.54" width="284.65" height="183.95" rx="15.12" fill="#fff"></rect><path d="M140.78,229.33l7.49-3s10.78-6.42,11.54-8.72a20.74,20.74,0,0,0,.95-4.12l2.59-2.12a6,6,0,0,0,.41-3.65c-.47-1.83-23,15.14-23,15.14Z" transform="translate(-21.41 -1.8)" opacity="0.26" fill="url(#linear-gradient-3)"></path><path d="M163.63,210.32a3.25,3.25,0,0,1-2.13-.72c-1.53-1.25-1.6-3.8-1.64-5.17a2.13,2.13,0,0,1,.64-1.6c1.26-1.26,4.05-1.2,4.34-1.2l0,1.67a5,5,0,0,0-3.11.71.45.45,0,0,0-.16.37c0,1.1.09,3.16,1,3.93a2,2,0,0,0,1.65.28l.28,1.65A5.29,5.29,0,0,1,163.63,210.32Z" transform="translate(-21.41 -1.8)" fill="#68e1fd"></path><path d="M163.63,210.29a3.24,3.24,0,0,1-2.13-.71c-1.53-1.25-1.6-3.8-1.64-5.17a2.17,2.17,0,0,1,.64-1.61c1.26-1.25,4.05-1.2,4.34-1.2l0,1.68a5,5,0,0,0-3.11.71.45.45,0,0,0-.16.37c0,1.1.09,3.16,1,3.93a2,2,0,0,0,1.65.28l.28,1.65A5.24,5.24,0,0,1,163.63,210.29Z" transform="translate(-21.41 -1.8)" fill="url(#linear-gradient-4)"></path><g opacity="0.52"><rect x="167.36" y="107.14" width="67.58" height="4.96" fill="#68e1fd"></rect><rect x="167.36" y="116.73" width="41.25" height="4.66" fill="#68e1fd"></rect><rect x="225.25" y="116.73" width="129.8" height="4.68" fill="#68e1fd"></rect><rect x="188.81" y="126.34" width="56.72" height="4.91" fill="#68e1fd"></rect><rect x="207.02" y="135.93" width="67.58" height="4.96" fill="#68e1fd"></rect><rect x="279.01" y="135.93" width="56.64" height="5.5" fill="#68e1fd"></rect><rect x="206.92" y="145.52" width="52.19" height="4.66" fill="#68e1fd"></rect><rect x="264.11" y="145.52" width="107.68" height="5.16" fill="#68e1fd"></rect><rect x="167.36" y="158.5" width="67.58" height="4.96" fill="#68e1fd"></rect><rect x="167.36" y="168.09" width="41.25" height="4.66" fill="#68e1fd"></rect><rect x="225.25" y="168.09" width="129.8" height="4.68" fill="#68e1fd"></rect><rect x="188.81" y="177.68" width="56.72" height="4.91" fill="#68e1fd"></rect><rect x="207.02" y="187.3" width="67.58" height="4.96" fill="#68e1fd"></rect><rect x="279.01" y="187.3" width="56.64" height="5.5" fill="#68e1fd"></rect><rect x="206.92" y="196.89" width="52.19" height="4.66" fill="#68e1fd"></rect><rect x="264.11" y="196.89" width="107.68" height="5.16" fill="#68e1fd"></rect><rect x="167.36" y="209.86" width="67.58" height="4.96" fill="#68e1fd"></rect><rect x="167.36" y="219.45" width="41.25" height="4.66" fill="#68e1fd"></rect><rect x="225.25" y="219.45" width="129.8" height="4.68" fill="#68e1fd"></rect><rect x="188.81" y="229.04" width="56.72" height="4.91" fill="#68e1fd"></rect><rect x="207.02" y="238.63" width="67.58" height="4.96" fill="#68e1fd"></rect><rect x="279.01" y="238.63" width="56.64" height="5.5" fill="#68e1fd"></rect><rect x="206.92" y="248.25" width="52.19" height="4.66" fill="#68e1fd"></rect><rect x="264.11" y="248.25" width="107.68" height="5.16" fill="#68e1fd"></rect></g><polygon points="129.03 275.48 72.94 317.7 465.56 317.7 410.73 274.84 129.03 275.48" fill="#68e1fd"></polygon><polygon points="129.03 275.48 72.94 317.7 465.56 317.7 410.73 274.84 129.03 275.48" fill="url(#linear-gradient-5)"></polygon><path d="M117.89,306.24l35.88,3.44c.87.08,1.88.26,2.28,1a1.81,1.81,0,0,1-.84,2.24,5.2,5.2,0,0,1-2.56.54L114.83,315a11,11,0,0,1-5.35-.67c-1.64-.79-2.86-2.75-2.21-4.45.77-2,3.34-2.39,5.47-2.49" transform="translate(-21.41 -1.8)" opacity="0.26" fill="url(#linear-gradient-6)"></path><polygon points="89.01 333.14 72.94 317.7 465.56 317.7 451.06 334.08 89.01 333.14" fill="#68e1fd"></polygon><polygon points="89.01 333.14 72.94 317.7 465.56 317.7 451.06 334.08 89.01 333.14" fill="url(#linear-gradient-7)"></polygon><polygon points="108.86 295.43 426.49 295.01 409.47 281.15 128.4 281.15 108.86 295.43" fill="#68e1fd" opacity="0.58" style="isolation: isolate;"></polygon><g opacity="0.24" style="isolation: isolate;"><path d="M387.61,41.85V100a12.89,12.89,0,0,1-12.88,12.89H313.46l-18.08,18.08-14.13-18.08H218.54A12.87,12.87,0,0,1,205.68,100V41.85A12.89,12.89,0,0,1,218.54,29H374.73A12.91,12.91,0,0,1,387.61,41.85Z" transform="translate(-21.41 -1.8)" fill="#68e1fd"></path></g><rect x="184.26" y="19.47" width="181.94" height="83.9" rx="12.88" fill="#fff"></rect><polygon points="225.13 311.08 241.84 297.85 302.96 297.53 320.61 310.77 225.13 311.08" fill="#68e1fd" opacity="0.58" style="isolation: isolate;"></polygon><polygon points="257 99.91 273.97 121.59 294.71 100.85 257 99.91" fill="#fff"></polygon><path d="M217.3,61.8l14.85-7.64v2.21l-12.51,6.27v.06L232.15,69v2.21L217.3,63.53Z" transform="translate(-21.41 -1.8)" fill="#68e1fd"></path><path d="M232.83,75.65a4.49,4.49,0,0,0,3.06-1.18c.77-.9,1.06-2.11,1.06-5.82v-13h2.82v14c0,3-.48,5-1.86,6.36a7.13,7.13,0,0,1-4.8,1.76Zm7.26-24.3a1.65,1.65,0,0,1-1.76,1.73,1.68,1.68,0,0,1-1.73-1.73,1.73,1.73,0,0,1,1.79-1.76A1.67,1.67,0,0,1,240.09,51.35Z" transform="translate(-21.41 -1.8)" fill="#68e1fd"></path><path d="M252.94,71.18l-.22-2h-.1a5.76,5.76,0,0,1-4.73,2.3,4.41,4.41,0,0,1-4.73-4.45c0-3.74,3.32-5.79,9.3-5.76V61c0-1.28-.35-3.58-3.51-3.58a7.63,7.63,0,0,0-4,1.15l-.64-1.86a9.58,9.58,0,0,1,5.08-1.38c4.74,0,5.89,3.24,5.89,6.34v5.78a22.14,22.14,0,0,0,.25,3.72Zm-.41-7.9c-3.07-.07-6.56.48-6.56,3.48a2.49,2.49,0,0,0,2.66,2.69,3.86,3.86,0,0,0,3.74-2.59,3.16,3.16,0,0,0,.16-.9Z" transform="translate(-21.41 -1.8)" fill="#68e1fd"></path><path d="M260.63,55.7l3,8.7a39.45,39.45,0,0,1,1.24,4h.1c.35-1.28.8-2.56,1.31-4l3-8.7h2.94l-6.08,15.48h-2.68L257.62,55.7Z" transform="translate(-21.41 -1.8)" fill="#68e1fd"></path><path d="M283.37,71.18l-.22-2h-.1a5.76,5.76,0,0,1-4.73,2.3,4.41,4.41,0,0,1-4.73-4.45c0-3.74,3.32-5.79,9.3-5.76V61c0-1.28-.35-3.58-3.51-3.58a7.69,7.69,0,0,0-4,1.15l-.64-1.86a9.64,9.64,0,0,1,5.09-1.38c4.73,0,5.88,3.24,5.88,6.34v5.78a22.07,22.07,0,0,0,.26,3.72Zm-.41-7.9c-3.07-.07-6.56.48-6.56,3.48a2.49,2.49,0,0,0,2.66,2.69,3.86,3.86,0,0,0,3.74-2.59A3.16,3.16,0,0,0,283,66Z" transform="translate(-21.41 -1.8)" fill="#68e1fd"></path><path d="M289.84,68.3a7.4,7.4,0,0,0,3.71,1.12c2.05,0,3-1,3-2.31s-.79-2.07-2.87-2.84c-2.79-1-4.1-2.53-4.1-4.38,0-2.5,2-4.55,5.34-4.55a7.66,7.66,0,0,1,3.81,1l-.71,2a6,6,0,0,0-3.16-.89c-1.66,0-2.59,1-2.59,2.11s.93,1.85,2.94,2.62c2.69,1,4.06,2.37,4.06,4.67,0,2.72-2.11,4.64-5.78,4.64a8.79,8.79,0,0,1-4.35-1.06Z" transform="translate(-21.41 -1.8)" fill="#68e1fd"></path><path d="M313.93,70.6a10.45,10.45,0,0,1-4.45.9c-4.67,0-7.71-3.17-7.71-7.9s3.26-8.22,8.32-8.22a9.32,9.32,0,0,1,3.9.8l-.64,2.17a6.58,6.58,0,0,0-3.26-.73c-3.55,0-5.47,2.62-5.47,5.85,0,3.58,2.3,5.79,5.37,5.79a8,8,0,0,0,3.46-.77Z" transform="translate(-21.41 -1.8)" fill="#68e1fd"></path><path d="M317.23,60.53c0-1.83,0-3.39-.13-4.83h2.46l.1,3h.12a4.66,4.66,0,0,1,4.29-3.4,3.24,3.24,0,0,1,.8.1V58.1a3.93,3.93,0,0,0-1-.1c-2,0-3.39,1.5-3.78,3.61a8.62,8.62,0,0,0-.12,1.32v8.25h-2.78Z" transform="translate(-21.41 -1.8)" fill="#68e1fd"></path><path d="M331,51.35a1.74,1.74,0,0,1-3.48,0,1.71,1.71,0,0,1,1.76-1.76A1.67,1.67,0,0,1,331,51.35Zm-3.13,19.83V55.7h2.81V71.18Z" transform="translate(-21.41 -1.8)" fill="#68e1fd"></path><path d="M335.31,60.75c0-2-.07-3.58-.13-5h2.52l.13,2.65h.06a6.12,6.12,0,0,1,5.51-3c3.74,0,6.55,3.17,6.55,7.87,0,5.57-3.39,8.32-7,8.32a5.45,5.45,0,0,1-4.77-2.43h-.06v8.41h-2.78Zm2.78,4.13a6.77,6.77,0,0,0,.12,1.15,4.35,4.35,0,0,0,4.23,3.29c3,0,4.7-2.43,4.7-6,0-3.1-1.63-5.75-4.61-5.75a4.49,4.49,0,0,0-4.25,3.48,4.39,4.39,0,0,0-.19,1.15Z" transform="translate(-21.41 -1.8)" fill="#68e1fd"></path><path d="M356.9,51.25V55.7h4v2.14h-4v8.35c0,1.91.54,3,2.11,3a6.12,6.12,0,0,0,1.63-.19l.13,2.11a6.78,6.78,0,0,1-2.5.39,3.88,3.88,0,0,1-3-1.19c-.8-.83-1.09-2.21-1.09-4V57.84h-2.4V55.7h2.4V52Z" transform="translate(-21.41 -1.8)" fill="#68e1fd"></path><path d="M378.71,63.57l-14.84,7.61V69l12.6-6.27v-.06l-12.6-6.27V54.16l14.84,7.61Z" transform="translate(-21.41 -1.8)" fill="#68e1fd"></path><polygon points="163.28 166.27 141.87 160.5 130.89 186 134.52 193.07 149.22 192.23 163.28 166.27" fill="url(#linear-gradient-8)"></polygon><path d="M136.06,232.11l-4.33,72.4-7.89,1.16-3.6-55L117,305.54l-7.82.25s-3.63-55.39-2.83-59.45,0-17,0-17Z" transform="translate(-21.41 -1.8)" fill="#606161"></path><path d="M137.3,225.08c3.82-2.32,7.53-12.15,5.88-14.53-2-2.88-4.94-22.74-7.55-25a13.81,13.81,0,0,0-9.35-3.79c-4.06.15-8.54-1.75-12.32-.21a20.32,20.32,0,0,0-5.65,4c-2.71,2.43-4.83,43.4-1.78,47.85,3.89,5.69,11.91,5.88,18.69,5.49,2.34-.13,4.78-.3,6.83-1.48C137.21,234.41,137.85,231.11,137.3,225.08Z" transform="translate(-21.41 -1.8)" fill="#68e1fd"></path><path d="M153.14,207.4a2.78,2.78,0,0,1,1.82-.25,2.36,2.36,0,0,1,.89.65,13.4,13.4,0,0,1,2.89,4.51,3.65,3.65,0,0,1,.24,2.53,4.3,4.3,0,0,1-2.09,2c-6,3.48-13.3,8.44-20.24,7.77-.49,0-.32-1.5-.68-1.82a2.51,2.51,0,0,1-.6-1.67,30.22,30.22,0,0,1-.2-6.65,10.14,10.14,0,0,1,2.64-6,3.69,3.69,0,0,1,2.3-1.21c1.35-.08,1.25,1,2,1.42a7,7,0,0,0,3.59.56A22.51,22.51,0,0,0,153.14,207.4Z" transform="translate(-21.41 -1.8)" fill="#68e1fd"></path><path d="M129,202.58s2.26,17.91,8.3,22.5c0,0,2.08,11.09-7.48,13a16.66,16.66,0,0,1-7.25.72s9.3,2.81,7.55-15.83S129,202.58,129,202.58Z" transform="translate(-21.41 -1.8)" opacity="0.26" fill="url(#linear-gradient-9)"></path><path d="M137.4,309.52a1.25,1.25,0,0,1,.45.91,1.09,1.09,0,0,1-.36.66,4.43,4.43,0,0,1-2.46,1,21.69,21.69,0,0,1-8.71-.48,3.67,3.67,0,0,1-1.89-1,4,4,0,0,1-.68-2.58l-.08-3.15a1.57,1.57,0,0,1,.08-.72c.24-.58,1-.72,1.6-.77a39.4,39.4,0,0,1,4.48-.08c.53,0,1.21-.08,1.63.26s.57,1,.85,1.34C133.75,306.7,135.85,307.82,137.4,309.52Z" transform="translate(-21.41 -1.8)" fill="#606161"></path><path d="M122.44,309.53a1.24,1.24,0,0,1,.43.89,1,1,0,0,1-.35.63,4.22,4.22,0,0,1-2.37.94,20.74,20.74,0,0,1-8.41-.47,3.47,3.47,0,0,1-1.83-.94,3.9,3.9,0,0,1-.66-2.5l-.08-3a1.65,1.65,0,0,1,.08-.7c.23-.56.94-.69,1.54-.74a41.71,41.71,0,0,1,4.33-.08,2.78,2.78,0,0,1,1.58.25c.31.26.55,1,.82,1.3C118.91,306.81,120.94,307.9,122.44,309.53Z" transform="translate(-21.41 -1.8)" fill="#606161"></path><path d="M117.27,181.44a2.42,2.42,0,0,0,.8,1.59,2.46,2.46,0,0,0,1.13.32,31.85,31.85,0,0,0,4.58.19.54.54,0,0,0,.33-.08.53.53,0,0,0,.14-.24c.56-1.65-.49-3.71.53-5.12.66-.91,1.93-1.16,2.7-2,.91-1,.89-2.45.83-3.77L128,166.2a3.45,3.45,0,0,0-.31-1.5,3.3,3.3,0,0,0-1.83-1.24,12.63,12.63,0,0,0-6-1.1,3.7,3.7,0,0,0-1.35.4,4.77,4.77,0,0,0-1.12,1,9.15,9.15,0,0,0-1.92,3.05,9.88,9.88,0,0,0-.07,4.23,23.82,23.82,0,0,0,1,5.19C117,177.93,116.92,179.72,117.27,181.44Z" transform="translate(-21.41 -1.8)" fill="url(#linear-gradient-10)"></path><path d="M130,158.21c-.69-2.43-3.61-4.12-5.93-3.12a19.94,19.94,0,0,0-1.83,1.08c-1.16.66-2.49.94-3.7,1.51a10.59,10.59,0,0,0-5.49,7.44,18.28,18.28,0,0,0,.8,9.43,6,6,0,0,0,1.32,2.5,6.86,6.86,0,0,0,4,1.5,2.34,2.34,0,0,0,3.11-2.66,2.27,2.27,0,0,0-.09-1.19,2.3,2.3,0,0,0-.66-.73,3.81,3.81,0,0,1-1.44-1.87c-.19-.78.29-1.77,1.09-1.8s1.41,1,1.66,1.92a1.54,1.54,0,0,0,.39-1.59,12.69,12.69,0,0,1-.43-1.69c-.17-2.51,3-3,4.52-4.16C129.35,163.26,130.73,160.75,130,158.21Z" transform="translate(-21.41 -1.8)" fill="#606161"></path><rect x="143" y="198.14" width="10.84" height="12.25" rx="2.16" fill="#68e1fd"></rect><rect x="143" y="198.14" width="10.84" height="12.25" rx="2.16" fill="url(#linear-gradient-11)"></rect><path d="M158.09,204.72a1.62,1.62,0,0,1,1.23-.68,3.72,3.72,0,0,1,.65.19,3.57,3.57,0,0,0,1.51-.18,1.38,1.38,0,0,1,1.42.32,1.54,1.54,0,0,1,.23.84l.28,3.18a4,4,0,0,1,0,.69,3.33,3.33,0,0,1-.21.63,5.07,5.07,0,0,1-.55,1.06,3.45,3.45,0,0,1-1.92,1.18,10.78,10.78,0,0,1-2.27.21l-1.19,0a1.85,1.85,0,0,1-.57-.06,1.67,1.67,0,0,1-.79-.9,6,6,0,0,1-.49-1.14c-.18-.63-.18-1.3-.3-1.94-.08-.45-.14-.74.26-1A19.81,19.81,0,0,0,158.09,204.72Z" transform="translate(-21.41 -1.8)" fill="url(#linear-gradient-12)"></path><path d="M174.41,201c0,.14-.13.24-.4.34a16.79,16.79,0,0,1-8.37,0c-.27-.1-.4-.2-.4-.34,0-.46,2-.87,4.59-.87S174.41,200.55,174.41,201Z" transform="translate(-21.41 -1.8)" opacity="0.26" fill="url(#linear-gradient-13)"></path><path d="M174,201.35a16.79,16.79,0,0,1-8.37,0,17.76,17.76,0,0,1,8.37,0Z" transform="translate(-21.41 -1.8)" opacity="0.26" fill="url(#linear-gradient-14)"></path><path d="M161,193.11c-3.49-5.36-4.35-12.68-1.12-18.21,1-1.78,2.47-3.36,3.16-5.31.95-2.66.38-5.6.66-8.42a6.19,6.19,0,0,1,1.16-3.32,5,5,0,0,1,2.6-1.6c4.13-1.11,8.76,2.76,8.4,7-.32,3.79-3.8,6.95-3.49,10.74.39,4.64,6.29,7.81,5.65,12.42-.46,3.26-4.17,5.61-3.92,8.89.13,1.64,1.24,3.42.31,4.78-1.26,1.84-7.3,1.89-8.89.65C163.72,199.35,162.26,195.07,161,193.11Z" transform="translate(-21.41 -1.8)" opacity="0.26" fill="url(#linear-gradient-15)"></path></svg>